<?xml version="1.0" encoding="utf-8"?>
<!-- Generator: Adobe Illustrator 23.0.6, SVG Export Plug-In . SVG Version: 6.00 Build 0)  -->
<svg version="1.1" xmlns="http://www.w3.org/2000/svg" xmlns:xlink="http://www.w3.org/1999/xlink" x="0px" y="0px"
	 viewBox="0 0 750 500" style="enable-background:new 0 0 750 500;" xml:space="preserve">
<style type="text/css">
	.st0{fill:#E5AC7F;}
	.st1{fill:none;stroke:#E5AC7F;stroke-miterlimit:10;}
</style>
<g id="BACKGROUND">
	<g>
		<g>
			<g>
				<path class="st0" d="M384.39,318.61c-5.94-13.19-16.49-23.36-28.47-31.16c-12.27-7.99-25.84-13.72-39.26-19.45
					c-6.52-2.78-13.03-5.58-19.41-8.67c-7.32-3.54-14.26-7.86-20.7-12.84c-12.73-9.84-23.46-22.19-31.87-35.88
					c-8.41-13.68-14.56-28.71-18.22-44.34c-0.23-0.96-0.47-1.92-0.65-2.89c-0.2-1.04-0.17-2.1-0.53-3.1
					c-0.53-1.51-2.94-0.86-2.41,0.66c0.35,1,0.33,2.07,0.53,3.1c0.18,0.97,0.42,1.93,0.65,2.89c0.47,1.99,0.97,3.97,1.52,5.94
					c1.07,3.84,2.28,7.63,3.65,11.37c2.75,7.56,6.09,14.91,9.99,21.95c7.81,14.07,17.92,26.96,30.08,37.54
					c6.08,5.3,12.66,10.03,19.66,14.04c6.41,3.67,13.2,6.66,19.97,9.6c13.49,5.85,27.22,11.3,39.97,18.69
					c12.34,7.16,23.84,16.36,30.92,28.97c0.88,1.58,1.69,3.19,2.43,4.84C382.89,321.34,385.05,320.07,384.39,318.61L384.39,318.61z"
					/>
			</g>
		</g>
		<g>
			<g>
				<path class="st0" d="M234.76,187.57c0.56-5.05,0.88-10.13,0.77-15.22c-0.08-3.93-0.27-7.95-1.32-11.76
					c-1.37-4.98-4.4-11.98-10.07-13.22c-6.14-1.35-11.77,5.21-12.71,10.73c-1.07,6.28,2.08,12.46,5.72,17.35
					c4.13,5.54,9.39,10.56,15.33,14.13c1.38,0.83,2.64-1.33,1.26-2.16c-4.66-2.79-8.81-6.56-12.35-10.66
					c-3.62-4.19-7.27-9.48-7.65-15.18c-0.18-2.59,0.42-5.08,1.87-7.25c1.46-2.2,4.03-4.61,6.84-4.64c5.06-0.07,7.91,6.81,9.11,10.77
					c1.15,3.77,1.37,7.74,1.46,11.66c0.12,5.16-0.2,10.33-0.77,15.46C232.09,189.17,234.59,189.15,234.76,187.57L234.76,187.57z"/>
			</g>
		</g>
		<g>
			<g>
				<path class="st0" d="M263.95,234.2c1.46-4.2,4.03-7.9,5.51-12.1c0.77-2.17,1.05-4.42,1.13-6.71c0.16-4.47-0.1-10.17-3.08-13.78
					c-3.06-3.71-8.66-2.05-10.93,1.68c-2.67,4.4-1.56,10.49-0.5,15.2c1.25,5.53,3.41,10.75,4.89,16.21
					c0.42,1.55,2.83,0.89,2.41-0.66c-1.14-4.2-2.76-8.26-3.94-12.45c-1.28-4.58-2.74-9.94-1.62-14.7c0.42-1.8,1.33-3.41,3-4.29
					c1.45-0.76,3.16-0.93,4.42,0.25c1.36,1.28,1.92,3.32,2.29,5.09c0.47,2.18,0.6,4.44,0.57,6.67c-0.03,2.2-0.23,4.35-0.92,6.44
					c-1.44,4.36-4.15,8.16-5.65,12.5C261.01,235.06,263.43,235.71,263.95,234.2L263.95,234.2z"/>
			</g>
		</g>
		<g>
			<g>
				<path class="st0" d="M251.74,223.58c-6.93,2.81-15.27,2.38-22.36,0.37c-4.09-1.16-8.14-3.26-11.61-5.68
					c-1.5-1.04-3.23-2.33-4.03-4.03c-0.28-0.59-0.37-1.06-0.16-1.58c0.22-0.55,0.91-1.11,1.52-1.48c5.78-3.44,12.63-0.69,17.85,2.44
					c6.57,3.95,12.33,9.51,19.55,12.3c1.5,0.58,2.15-1.83,0.66-2.41c-3.33-1.29-6.33-3.37-9.24-5.41c-3.21-2.25-6.35-4.61-9.72-6.64
					c-5.95-3.58-13.24-6.13-19.86-2.72c-1.82,0.94-3.49,2.53-3.36,4.73c0.13,2.03,1.63,3.74,3.08,5.04c3.72,3.33,8.53,5.7,13.2,7.37
					c3.34,1.19,6.97,1.74,10.5,1.99c4.91,0.36,10.05-0.03,14.65-1.89C253.87,225.39,253.23,222.97,251.74,223.58L251.74,223.58z"/>
			</g>
		</g>
		<g>
			<g>
				<path class="st0" d="M290.39,257.36c-4.02,3.15-8.85,4.86-13.74,6.13c-2.5,0.65-5.02,1.26-7.51,1.53
					c-5.11,0.54-10.69,0.77-15.68-0.65c-1.66-0.47-3.78-1.33-4.4-2.95c-0.69-1.82,0.43-4.09,2-5.16c2.36-1.6,5.55-1.88,8.32-1.97
					c3.43-0.11,6.88,0.2,10.26,0.73c3.18,0.5,6.42,1.08,9.38,2.37c4.54,1.97,9.45,4.75,14.42,2.58c1.47-0.64,0.2-2.8-1.26-2.16
					c-4.52,1.97-9.79-1.87-13.88-3.4c-2.74-1.02-5.78-1.48-8.66-1.9c-3.57-0.53-7.2-0.87-10.81-0.7c-3.1,0.15-6.57,0.59-9.19,2.41
					c-2.2,1.53-3.59,4.27-3.18,6.98c0.34,2.28,2.12,3.86,4.13,4.78c5.12,2.32,11.47,2.13,16.95,1.7c2.86-0.23,5.58-0.73,8.36-1.41
					c5.84-1.43,11.48-3.39,16.26-7.13C293.43,258.14,291.65,256.38,290.39,257.36L290.39,257.36z"/>
			</g>
		</g>
		<g>
			<g>
				<path class="st0" d="M310.48,264.36c-4.4-6.87-5.88-15.13-9.69-22.3c-1.34-2.53-2.9-4.96-4.64-7.23
					c-1.85-2.41-3.94-4.81-6.58-6.38c-2.18-1.3-4.82-1.82-7.12-0.49c-2.22,1.28-3.54,3.6-3.31,6.16c0.27,2.91,1.81,5.61,3.42,7.98
					c1.9,2.8,4.12,5.37,6.43,7.83c1.98,2.11,4.03,4.2,6.2,6.11c4.18,3.69,9.35,6.04,13.19,10.15c1.1,1.18,2.87-0.59,1.77-1.77
					c-3.12-3.33-7.06-5.63-10.74-8.26c-2.22-1.59-4.16-3.45-6.1-5.37c-4.11-4.08-8.7-8.68-10.95-14.12
					c-0.74-1.79-1.27-3.97,0.15-5.55c1.52-1.69,3.49-1.76,5.41-0.72c2.38,1.29,4.28,3.43,5.93,5.53c1.67,2.12,3.14,4.42,4.44,6.79
					c3.91,7.11,5.48,15.83,10.02,22.91C309.19,266.97,311.36,265.72,310.48,264.36L310.48,264.36z"/>
			</g>
		</g>
		<g>
			<g>
				<path class="st0" d="M287.54,259.06c-12.94,1.11-26.01,3.03-39.02,1.95c-1.6-0.13-1.59,2.37,0,2.5
					c13.01,1.09,26.07-0.84,39.02-1.95C289.13,261.42,289.15,258.92,287.54,259.06L287.54,259.06z"/>
			</g>
		</g>
		<g>
			<g>
				<path class="st0" d="M307.91,261.86c-7.43-11-16.73-20.64-23.56-32.06c-0.83-1.38-2.99-0.12-2.16,1.26
					c6.83,11.42,16.13,21.06,23.56,32.06C306.65,264.45,308.82,263.2,307.91,261.86L307.91,261.86z"/>
			</g>
		</g>
		<g>
			<g>
				<path class="st0" d="M251.39,224.24c-5.53-2.91-11.91-3.08-17.9-4.45c-6.93-1.58-13.34-4.42-19.74-7.46
					c-1.45-0.69-2.72,1.47-1.26,2.16c6.36,3.02,12.73,5.82,19.58,7.53c5.96,1.48,12.52,1.46,18.05,4.37
					C251.56,227.15,252.82,225,251.39,224.24L251.39,224.24z"/>
			</g>
		</g>
		<g>
			<g>
				<path class="st0" d="M264.35,231.48c1.41-4.48,0.8-9.27,0.41-13.86c-0.45-5.27,0.68-10.53,0.19-15.81c-0.15-1.59-2.65-1.6-2.5,0
					c0.48,5.15-0.64,10.28-0.22,15.42c0.36,4.48,1.08,9.2-0.29,13.58C261.46,232.35,263.87,233.01,264.35,231.48L264.35,231.48z"/>
			</g>
		</g>
		<path class="st1" d="M147.55,86.77c-3.22,0-3.22,5,0,5C150.77,91.77,150.77,86.77,147.55,86.77z"/>
		<path class="st1" d="M157.55,74.77c-3.22,0-3.22,5,0,5C160.77,79.77,160.77,74.77,157.55,74.77z"/>
		<path class="st1" d="M290.33,297.16c-3.22,0-3.22,5,0,5C293.55,302.16,293.55,297.16,290.33,297.16z"/>
	</g>
</g>
<g id="DESIGNED_BY_FREEPIK">
</g>
</svg>
