<?xml version="1.0" encoding="utf-8"?>
<!-- Generator: Adobe Illustrator 23.0.6, SVG Export Plug-In . SVG Version: 6.00 Build 0)  -->
<svg version="1.1" id="Layer_1" xmlns="http://www.w3.org/2000/svg" xmlns:xlink="http://www.w3.org/1999/xlink" x="0px" y="0px"
	 viewBox="0 0 56.41 56.69" style="enable-background:new 0 0 56.41 56.69;" xml:space="preserve">
<style type="text/css">
	.st0{fill-rule:evenodd;clip-rule:evenodd;fill:#E5AC7F;}
</style>
<path id="_x37_3" class="st0" d="M25.48,22.47c-0.08,0.09-0.16,0.18-0.23,0.24c-0.42,0-0.62-0.26-0.77-0.53
	c-0.29-0.53-0.51-1.08-0.5-1.71c0.01-0.73,0-1.46-0.01-2.18c-0.01-0.75-0.03-1.51-0.05-2.38c-0.01,0.01,0.05-0.05,0.08-0.08
	c0.13,0,0.21-0.02,0.26,0c0.61,0.4,1.24,0.77,1.8,1.22c0.69,0.54,1.21,1.22,1.32,2.12c0.14,1.1,0.05,2.15-0.85,2.96
	c-0.07,0.06-0.11,0.15-0.18,0.25c0.03,0.47,0.18,0.89,0.58,1.25c0.12-0.11,0.23-0.17,0.29-0.27c0.21-0.35,0.41-0.71,0.6-1.08
	c0.31-0.62,0.63-1.24,0.92-1.87c0.6-1.27,0.95-2.61,1.1-4.01c0.02-0.19-0.01-0.4,0.06-0.56c0.39-0.91,0.27-1.86,0.24-2.8
	c-0.01-0.59-0.3-1.01-0.83-1.32c-0.2,0.09-0.4,0.18-0.59,0.27c-0.43,0.22-0.85,0.19-1.28-0.01c-0.54-0.25-0.92-0.66-1.17-1.19
	c-0.35-0.74-0.7-1.49-1.06-2.23c-0.43-0.88-0.84-1.77-1.44-2.45c0.01-0.33,0.15-0.48,0.36-0.45c0.97,0.14,1.98,0.04,2.89,0.47
	c0.95,0.45,1.8,1.06,2.47,1.88c0.2,0.24,0.36,0.52,0.52,0.79c0.37,0.64,0.44,1.31,0.14,2c-0.1,0.23-0.17,0.47-0.26,0.73
	c0.21,0.45,0.36,0.94,0.93,1.22c0.41-0.25,0.84-0.51,1.25-0.76c0.03-0.2,0.08-0.36,0.07-0.51c-0.06-0.95,0.28-1.8,0.6-2.66
	c0.21-0.55,0.59-0.97,1.08-1.29c0.61-0.4,1.22-0.8,1.84-1.17c0.79-0.47,1.55-0.98,2.19-1.65c0.06-0.07,0.15-0.11,0.23-0.16
	c0.02-0.01,0.06,0.01,0.12,0.02c0.02,0.07,0.08,0.17,0.06,0.24c-0.59,1.57-1.16,3.14-1.79,4.7c-0.21,0.52-0.54,1-0.86,1.47
	c-0.37,0.55-0.92,0.86-1.57,0.97c-0.16,0.03-0.31,0.05-0.47,0.07c-1.03,0.15-1.59,0.44-2.36,1.2c-0.36,1.63-0.68,3.24-1.08,4.83
	c-0.21,0.82-0.57,1.61-0.85,2.41c-0.11,0.31-0.36,0.6-0.23,1.02c0.7-0.04,1.16-0.49,1.53-0.7c0.38-0.71,0.66-1.28,0.98-1.82
	c0.24-0.42,0.6-0.73,1.06-0.92c0.38-0.16,0.74-0.35,1.12-0.51c0.79-0.33,1.57-0.68,2.24-1.23c0.17-0.14,0.37-0.25,0.57-0.34
	c0.1-0.04,0.23-0.01,0.36-0.01c0.19,0.37,0.11,0.72,0.04,1.05c-0.28,1.49-0.93,2.81-1.89,3.99c-0.53,0.64-1.24,0.96-2.01,1.2
	c-0.39,0.12-0.76,0.01-1.1-0.17c-0.39-0.21-0.76-0.44-1.19-0.69c-0.18,0.06-0.4,0.11-0.58,0.21c-0.41,0.23-0.81,0.49-1.21,0.75
	c-0.16,0.1-0.34,0.21-0.43,0.36c-0.44,0.69-1.09,1.22-1.43,1.98c-0.31,0.69-0.63,1.38-0.95,2.07c-0.05,0.11-0.09,0.24-0.15,0.35
	c-0.85,1.41-1.11,3.02-1.59,4.55c-0.07,0.23-0.06,0.49-0.08,0.7c0.21,0.17,0.36,0.1,0.46-0.02c0.27-0.31,0.52-0.63,0.77-0.95
	c0.02-0.31,0.05-0.59,0.06-0.87c0.02-0.96,0.42-1.78,0.98-2.53c0.37-0.5,0.88-0.83,1.47-0.99c1.59-0.44,3.09-1.11,4.63-1.69
	c0.14-0.05,0.29-0.08,0.41-0.12c0.21,0.18,0.15,0.34,0.05,0.46c-0.63,0.73-1,1.61-1.44,2.44c-0.24,0.45-0.48,0.89-0.76,1.31
	c-0.28,0.41-0.61,0.81-0.95,1.18c-0.93,0.99-2.08,1.41-3.43,1.25c-0.19-0.02-0.38-0.04-0.6-0.07c-0.64,0.37-1.06,0.95-1.34,1.63
	c-0.21,0.52-0.38,1.07-0.39,1.66c0,0.19-0.04,0.38-0.08,0.56c-0.4,1.81-0.5,3.63-0.23,5.47c0.11,0.75,0.24,1.5,0.37,2.24
	c0.03,0.18,0.12,0.34,0.19,0.53c0.63-0.41,0.85-0.77,0.89-1.38c0.02-0.38,0.03-0.76,0.07-1.13c0.14-1.41,0.84-2.5,1.97-3.32
	c0.38-0.28,0.79-0.53,1.18-0.79c0.93-0.62,1.78-1.32,2.35-2.3c0.03-0.05,0.1-0.08,0.15-0.12c0.2-0.03,0.3,0.09,0.31,0.26
	c0.01,0.22,0,0.44-0.04,0.66c-0.16,1-0.34,1.99-0.52,2.99c-0.17,0.98-0.51,1.89-1.04,2.73c-0.47,0.74-1.13,1.27-1.86,1.72
	c-0.31,0.19-0.65,0.26-1,0.25c-0.41-0.02-0.82-0.05-1.29-0.08c-0.48,0.25-0.72,0.73-0.79,1.27c-0.07,0.53-0.1,1.06,0.01,1.6
	c0.27,1.4,0.5,2.8,0.75,4.2c0.06,0.34,0.17,0.68,0.24,1.02c0.04,0.24,0.05,0.48,0.08,0.85c-0.16-0.13-0.25-0.17-0.27-0.23
	c-0.41-1.43-0.76-2.87-0.99-4.34c-0.19-1.15-0.44-2.3-0.71-3.44c-0.29-1.2-0.49-2.42-0.6-3.65c-0.08-0.88-0.49-1.56-1.26-2
	c-0.38-0.22-0.77-0.44-1.14-0.65c-0.31,0.07-0.59,0.12-0.86,0.19c-0.57,0.16-1.07,0.03-1.48-0.39c-0.74-0.78-1.43-1.61-1.97-2.54
	c-0.3-0.52-0.59-1.04-0.89-1.57c-0.2-0.36-0.42-0.7-0.76-0.96c-0.12-0.09-0.16-0.3-0.26-0.53c0.23-0.04,0.39-0.1,0.52-0.07
	c0.87,0.17,1.76,0.28,2.59,0.55c1.23,0.39,2.05,1.33,2.74,2.38c0.49,0.74,0.69,1.56,0.51,2.46c0.54,0.58,1.22,0.9,1.95,1.23
	c0.08-0.17,0.19-0.3,0.21-0.44c0.11-0.88,0.23-1.76,0.28-2.64c0.03-0.56-0.06-1.13-0.09-1.7c-0.01-0.25-0.01-0.5,0-0.75
	c0.02-0.85-0.18-1.62-0.7-2.32c-0.28,0.02-0.53,0.03-0.78,0.05c-0.72,0.05-1.21-0.3-1.51-0.92c-0.32-0.67-0.45-1.38-0.49-2.11
	c-0.04-0.73-0.09-1.45-0.15-2.18c-0.07-0.76-0.24-1.5-0.52-2.21c-0.08-0.19-0.08-0.42-0.11-0.62c0.93-0.29,2.06-0.1,2.82,0.48
	c0.71,0.55,1.28,1.21,1.65,2.04c0.4,0.88,0.65,1.77,0.6,2.75c-0.04,0.72-0.2,1.37-0.7,1.91c-0.11,0.12-0.19,0.25-0.27,0.36
	c-0.03,0.44,0.13,0.74,0.49,1.07c0.14-0.28,0.28-0.45,0.33-0.65c0.3-1.17,0.63-2.32,1.1-3.43c0.04-0.09,0.07-0.18,0.08-0.27
	c0.09-0.8,0.37-1.52,0.77-2.22c0.35-0.61,0.31-1.28-0.04-1.91c-0.13-0.23-0.32-0.39-0.59-0.43c0.26-0.46,0.22-0.97,0.23-1.48
	c0-0.21,0.01-0.21,0.23-0.51c0.11,0.38-0.13,0.83,0.24,1.15c0.43-0.13,0.5-0.18,0.59-0.38c0.71-1.47,0.3-2.86-0.63-3.62
	c-0.36-0.3-0.77-0.55-1.17-0.79c-0.11-0.07-0.28-0.06-0.48-0.1c-0.03,0.5-0.06,0.94-0.08,1.37c-0.03,0.66-0.07,1.32-0.07,1.98
	c0,0.67,0.13,1.31,0.49,1.89C24.98,22.27,25.16,22.47,25.48,22.47z M23.08,29.79c0.42-0.16,0.62-0.48,0.74-0.85
	c0.18-0.55,0.25-1.12,0.13-1.68c-0.26-1.19-0.75-2.28-1.63-3.15c-0.5-0.51-1.12-0.82-1.84-0.87c-0.17-0.01-0.35,0.07-0.58,0.12
	c0.03,0.29,0.03,0.54,0.09,0.78c0.19,0.8,0.29,1.61,0.32,2.43c0.03,0.72,0.1,1.45,0.21,2.17c0.06,0.4,0.22,0.79,0.39,1.16
	c0.13,0.3,0.41,0.49,0.72,0.57c0.33,0.08,0.62-0.02,0.89-0.31c-0.08-0.95-0.52-1.88-0.39-2.95C22.54,28.07,22.34,29.1,23.08,29.79z
	 M26.26,42.84c0.27,0.23,0.52,0.19,0.77,0.15c0.64-0.12,1.19-0.42,1.66-0.86c0.79-0.72,1.39-1.57,1.63-2.61
	c0.22-0.98,0.38-1.98,0.55-2.97c0.02-0.13-0.04-0.28-0.08-0.49c-0.18,0.08-0.31,0.1-0.39,0.18c-0.88,0.82-1.86,1.51-2.85,2.18
	c-0.48,0.32-0.85,0.76-1.14,1.25c-0.37,0.63-0.69,1.29-0.61,2.05c0.02,0.15,0.02,0.32,0.22,0.39c0.31,0.01,0.49-0.24,0.71-0.39
	c0.21-0.15,0.38-0.39,0.82-0.45c-0.32,0.33-0.54,0.55-0.75,0.78C26.59,42.27,26.31,42.45,26.26,42.84z M27.96,29.54
	c-0.5,0.59-1.24,0.96-1.57,1.8c0.28,0.05,0.49,0.12,0.69,0.12c1.36-0.04,2.42-0.7,3.22-1.74c0.73-0.95,1.29-2.02,1.76-3.13
	c0.06-0.13,0.06-0.28,0.11-0.52c-0.3,0.05-0.51,0.06-0.7,0.13c-1.04,0.36-2.07,0.76-3.12,1.1c-1.4,0.45-2.04,1.5-2.34,2.84
	c-0.03,0.12,0.06,0.27,0.11,0.47C26.85,30.34,27.26,29.7,27.96,29.54z M29.51,11.01c0.49-0.5,0.48-1.04,0.24-1.59
	c-0.81-1.87-2.3-2.86-4.26-3.21c-0.21-0.04-0.44,0-0.66,0.03c-0.08,0.01-0.15,0.09-0.27,0.17c0.08,0.21,0.16,0.41,0.25,0.6
	c0.44,0.91,0.89,1.81,1.34,2.71c0.15,0.31,0.29,0.63,0.47,0.93c0.15,0.24,0.33,0.46,0.53,0.66c0.42,0.41,0.9,0.55,1.51,0.29
	c0.05-0.11,0.12-0.25,0.2-0.41c-0.13-0.16-0.23-0.31-0.36-0.45c-0.13-0.14-0.38-0.17-0.44-0.43C28.68,10.28,28.92,10.88,29.51,11.01
	z M31.2,21.11c0.6,0.59,1.19,0.81,1.89,0.63c0.66-0.17,1.24-0.48,1.69-0.98c0.95-1.02,1.48-2.25,1.78-3.6
	c0.03-0.15,0.03-0.32-0.22-0.42c-0.1,0.04-0.26,0.08-0.38,0.17c-0.81,0.56-1.72,0.92-2.62,1.3c-0.14,0.06-0.29,0.13-0.43,0.19
	c-0.63,0.28-1.09,0.74-1.41,1.34c-0.07,0.13-0.08,0.28-0.11,0.4c0.31,0.26,0.6,0.14,0.87,0.11c0.28-0.04,0.55-0.12,0.83-0.18
	c0.25-0.06,0.46-0.28,0.81-0.23C33.2,20.69,32.14,20.59,31.2,21.11z M15.83,32.77c1.06,1.81,1.99,3.53,3.34,4.91
	c0.34,0.11,0.61,0.17,0.83-0.1c-0.02-0.44-0.51-0.44-0.68-0.82c0.52,0.07,0.9,0.53,1.48,0.41c0.05-0.18,0.16-0.37,0.12-0.52
	c-0.09-0.4-0.19-0.8-0.39-1.15c-0.24-0.44-0.55-0.85-0.88-1.23c-0.88-0.99-1.99-1.54-3.32-1.6C16.22,32.66,16.1,32.71,15.83,32.77z
	 M33.5,11.55c0.67,0.04,0.93-0.03,1.35-0.35c0.44-0.34,0.76-0.77,1-1.25c0.56-1.1,1.02-2.25,1.31-3.45c0.03-0.1-0.03-0.23-0.05-0.36
	c-0.15,0.02-0.25,0.01-0.32,0.06c-0.86,0.54-1.72,1.07-2.56,1.64c-1.04,0.71-1.5,1.77-1.67,2.97c-0.02,0.16-0.01,0.32,0.23,0.42
	c0.66-0.29,1.09-0.95,1.84-1.41C34.36,10.56,33.73,10.92,33.5,11.55z"/>
</svg>
