<?xml version="1.0" encoding="utf-8"?>
<!-- Generator: Adobe Illustrator 23.0.6, SVG Export Plug-In . SVG Version: 6.00 Build 0)  -->
<svg version="1.1" id="Layer_1" xmlns="http://www.w3.org/2000/svg" xmlns:xlink="http://www.w3.org/1999/xlink" x="0px" y="0px"
	 viewBox="0 0 56.41 56.69" style="enable-background:new 0 0 56.41 56.69;" xml:space="preserve">
<style type="text/css">
	.st0{fill-rule:evenodd;clip-rule:evenodd;fill:#E5AC7F;}
</style>
<path id="_x36_5" class="st0" d="M24.95,52.22c0.08-0.44,0.14-0.88,0.24-1.32c0.27-1.17,0.31-2.38,0.49-3.56
	c0.1-0.66,0.26-1.31,0.4-1.97c0.08-0.38,0.17-0.75,0.24-1.1c-0.43-0.41-0.84-0.74-1.2-1.13c-0.34-0.37-0.61-0.79-0.93-1.2
	c-0.25,0-0.47,0-0.69,0c-0.52,0.01-0.93-0.2-1.2-0.64c-0.26-0.43-0.51-0.87-0.7-1.33c-0.21-0.51-0.38-1.05-0.52-1.59
	c-0.15-0.57-0.33-1.12-0.61-1.64c-0.06-0.11-0.07-0.25-0.11-0.44c0.17,0,0.28-0.02,0.38,0c1,0.27,1.86,0.75,2.48,1.61
	c0.21,0.29,0.43,0.59,0.64,0.88c0.51,0.69,0.69,1.45,0.56,2.29c-0.02,0.14-0.03,0.28-0.05,0.45c0.36,0.65,0.88,1.19,1.37,1.76
	c0.15,0.17,0.35,0.28,0.65,0.23c0.06-0.11,0.17-0.24,0.21-0.39c0.29-1.14,0.57-2.27,0.85-3.41c0.01-0.05,0-0.11,0-0.15
	c-0.11-0.34-0.39-0.5-0.66-0.63c-0.9-0.43-1.48-1.16-1.98-1.98c-0.14-0.24-0.3-0.47-0.47-0.73c0.07-0.12,0.13-0.24,0.19-0.35
	c0.77-0.22,1.39-0.02,1.89,0.57c0.14,0.17,0.28,0.33,0.43,0.49c0.07-0.07,0.15-0.1,0.15-0.14c-0.01-0.89,0.19-1.78,0.04-2.67
	c-0.05-0.26,0.04-0.55,0.06-0.83c0.01-0.21,0-0.43,0-0.7c-0.22,0.02-0.38,0.02-0.53,0.06c-0.53,0.14-0.92-0.08-1.25-0.48
	c-0.07-0.09-0.14-0.18-0.18-0.28c-0.37-0.88-0.85-1.7-1.38-2.49c-0.04-0.06-0.02-0.15-0.04-0.29c0.14,0.03,0.25,0.03,0.33,0.09
	c0.5,0.33,1.05,0.5,1.62,0.67c0.53,0.16,1.04,0.37,1.62,0.58c0.04-0.17,0.13-0.33,0.11-0.47c-0.1-0.69-0.17-1.39-0.34-2.06
	c-0.35-1.38-0.54-2.79-0.71-4.21c-0.06-0.5-0.04-1-0.06-1.5c-0.02-0.41,0.05-0.84-0.21-1.28c-0.14-0.05-0.32-0.13-0.5-0.18
	c-0.67-0.2-1.23-0.6-1.56-1.19c-0.32-0.56-0.73-0.97-1.26-1.3c-0.04-0.03-0.06-0.09-0.12-0.17c0.02-0.08,0.05-0.18,0.09-0.3
	c0.43-0.07,0.83-0.14,1.15-0.19c0.74,0.03,1.13,0.63,1.71,0.74c0.23-0.1,0.23-0.28,0.23-0.44c0-0.87,0-1.73-0.01-2.6
	c-0.01-0.55-0.23-0.97-0.82-1.17c-0.22,0.04-0.47,0.09-0.71,0.13c-0.61,0.11-1.11-0.08-1.44-0.62c-0.16-0.26-0.3-0.53-0.43-0.81
	c-0.14-0.3-0.25-0.62-0.37-0.93c-0.15-0.4-0.37-0.75-0.67-1.06c-0.11-0.12-0.2-0.26-0.34-0.43c0.13-0.1,0.23-0.24,0.33-0.24
	c0.5-0.01,1-0.01,1.5,0.02c0.34,0.03,0.64,0.19,0.89,0.43c0.44,0.43,0.88,0.86,1.32,1.29c0.11,0.11,0.23,0.22,0.41,0.38
	c0.06-0.17,0.12-0.26,0.12-0.36c0.01-0.92,0.03-1.84,0.27-2.74c0.05-0.18,0.01-0.39,0-0.58c-0.07-1.14,0.3-2.07,1.22-2.79
	c0.42-0.32,0.78-0.72,1.17-1.08c0.1-0.09,0.2-0.17,0.35-0.31c0.21,0.54,0.3,1.02,0.26,1.52c-0.04,0.42-0.09,0.83-0.15,1.25
	c-0.07,0.48-0.28,0.9-0.57,1.29c-0.3,0.39-0.69,0.65-1.19,0.72c-0.27,0.04-0.56,0.02-0.81,0.26c-0.02,0.07-0.08,0.17-0.09,0.28
	C25.93,10.89,25.89,12,26,13.12c0.15,1.44,0.26,2.88,0.12,4.34c-0.08,0.84,0.06,1.67,0.29,2.48c0.03,0.1,0.1,0.19,0.15,0.29
	c0.11-0.03,0.21-0.02,0.26-0.07c0.35-0.32,0.68-0.66,1.02-0.99c0.19-0.19,0.29-0.41,0.28-0.67c0.1,0.04,0.2,0.09,0.35,0.15
	c0.35-0.22,0.72-0.46,1.08-0.69c0.02,0.02,0.04,0.04,0.06,0.05c-0.17,0.2-0.34,0.39-0.54,0.63c0.14,0.08,0.23,0.18,0.32,0.18
	c0.22,0,0.44-0.03,0.66-0.08c0.95-0.21,1.49-0.9,1.42-1.86c-0.04-0.58-0.16-1.16-0.41-1.69c-0.05-0.11-0.16-0.2-0.23-0.27
	c-0.36,0.06-0.52,0.3-0.71,0.5c-0.35,0.35-0.69,0.72-1.07,1.05c-0.63,0.54-0.97,1.2-0.92,2.04c-0.3-0.7-0.06-1.31,0.33-1.89
	c0.08-0.12,0.17-0.22,0.27-0.32c0.74-0.72,1.52-1.39,2.11-2.32c0.12,0.13,0.23,0.19,0.25,0.27c0.21,0.66,0.43,1.33,0.6,2
	c0.15,0.59,0.05,1.16-0.17,1.72c-0.19,0.47-0.51,0.81-1,0.94c-0.37,0.1-0.76,0.15-1.15,0.19c-0.28,0.03-0.56,0.01-0.82,0.01
	c-0.84,0.52-1.53,1.15-1.95,2.07c0.05,0.34,0.03,0.69-0.05,1.05c-0.07,0.35-0.03,0.72-0.02,1.08c0,0.1,0.07,0.2,0.11,0.29
	c0.29,0,0.35-0.21,0.42-0.38c0.11-0.25,0.18-0.51,0.26-0.74c0.25-0.04,0.31,0.1,0.34,0.23c0.13,0.72,0.23,1.43,0.12,2.16
	c-0.09,0.57-0.36,1.05-0.69,1.5c0,0.13-0.01,0.24,0,0.35c0.02,0.14,0.05,0.27,0.09,0.41c0.15,0.56,0.3,1.12,0.46,1.75
	c0.15-0.08,0.26-0.11,0.31-0.18c0.34-0.52,0.55-1.06,0.59-1.71c0.09-1.36,0.69-2.51,1.76-3.4c0.3-0.25,0.58-0.52,0.88-0.77
	c0.12-0.1,0.27-0.15,0.46-0.26c0.07,0.18,0.14,0.3,0.16,0.43c0.15,0.89,0.15,1.78,0.11,2.67c-0.01,0.25-0.09,0.49-0.15,0.74
	c-0.14,0.56-0.5,0.93-1.04,1.11c-0.42,0.14-0.86,0.23-1.29,0.34c-0.19,0.04-0.38,0.07-0.58,0.1c-0.55,0.71-0.79,1.55-0.99,2.39
	c-0.18,0.78-0.27,1.59-0.38,2.38c-0.04,0.28-0.07,0.56-0.07,0.83c-0.01,1.01-0.01,2.01-0.01,3.02c0,0.51,0.05,1.01,0.21,1.49
	c0.06,0.18,0.16,0.35,0.25,0.54c0.54-0.17,0.76-0.58,0.96-1.09c-0.2-0.7-0.12-1.44,0.06-2.19c0.17-0.7,0.47-1.28,1.04-1.76
	c0.83-0.7,1.6-1.48,2.41-2.21c0.24-0.22,0.46-0.47,0.87-0.57c0.04,0.16,0.12,0.29,0.09,0.4c-0.38,1.32-0.32,2.72-0.71,4.03
	c-0.08,0.27-0.14,0.54-0.23,0.8c-0.14,0.4-0.37,0.75-0.65,1.07c-0.43,0.5-0.97,0.73-1.63,0.71c-0.19-0.01-0.39-0.02-0.61-0.04
	c-0.53,0.33-0.88,0.85-1.2,1.36c-0.31,0.49-0.55,1.03-0.68,1.61c-0.31,1.36-0.64,2.71-0.95,4.07c-0.04,0.16-0.03,0.32-0.05,0.53
	c0.43-0.01,0.6-0.34,0.87-0.5c0.27-0.15,0.52-0.33,0.77-0.5c0.28-0.19,0.55-0.38,0.83-0.56c0.25-0.16,0.41-0.45,0.67-0.54
	c0.27,0.11,0.25,0.3,0.19,0.45c-0.4,1.01-0.8,2.03-1.23,3.02c-0.24,0.55-0.65,0.99-1.25,1.16c-0.31,0.09-0.65,0.1-1.03,0.15
	c-0.2,0.13-0.23,0.4-0.26,0.64C25.95,49.91,25.46,51.07,24.95,52.22L24.95,52.22z M29.71,37.44c0.26,0.03,0.39,0.08,0.52,0.06
	c0.42-0.06,0.79-0.23,1.11-0.53c0.41-0.4,0.68-0.87,0.85-1.41c0.34-1.1,0.36-2.25,0.48-3.38c0.01-0.07-0.06-0.14-0.12-0.26
	c-0.14,0.06-0.28,0.09-0.37,0.17c-0.41,0.33-0.82,0.67-1.21,1.02c-0.37,0.33-0.72,0.69-1.09,1.04c-0.1,0.1-0.22,0.18-0.3,0.29
	c-0.46,0.7-0.64,1.47-0.6,2.3c0.01,0.12,0.12,0.23,0.21,0.38c0.18-0.12,0.31-0.21,0.44-0.31c0.14-0.1,0.22-0.3,0.5-0.27
	C30,36.83,29.89,37.08,29.71,37.44z M24.14,40.92c0.06-0.24,0.14-0.4,0.12-0.54c-0.04-0.27-0.1-0.56-0.23-0.79
	c-0.46-0.83-1.01-1.6-1.73-2.23c-0.35-0.31-0.77-0.52-1.25-0.46c-0.05,0.11-0.09,0.16-0.09,0.21c0.27,1.25,0.7,2.46,1.22,3.62
	c0.12,0.27,0.35,0.51,0.58,0.7c0.29,0.23,0.63,0.36,1.01,0.03c-0.03-0.21-0.07-0.42-0.09-0.64c0-0.04,0.05-0.08,0.08-0.13
	C23.85,40.73,23.94,40.79,24.14,40.92z M29.38,27.4c1.34,0.1,2.01-0.41,2.17-1.53c0.11-0.75,0.03-1.5-0.07-2.24
	c-0.01-0.07-0.1-0.12-0.16-0.19c-0.4,0.06-0.62,0.38-0.89,0.59c-0.73,0.59-1.21,1.37-1.45,2.28c-0.05,0.2-0.13,0.43,0.08,0.6
	c0.3-0.05,0.39-0.31,0.57-0.48c0.17-0.15,0.25-0.42,0.65-0.46C29.96,26.49,29.7,26.9,29.38,27.4z M21.8,10.69
	c0.41,0.9,0.77,1.71,1.15,2.51c0.11,0.22,0.27,0.42,0.44,0.59c0.18,0.18,0.44,0.25,0.7,0.2c0.24-0.05,0.51-0.07,0.58-0.43
	c-0.05-0.09-0.11-0.22-0.2-0.32c-0.08-0.11-0.18-0.21-0.28-0.31c-0.12-0.12-0.25-0.22-0.37-0.33c-0.08-0.08-0.26-0.09-0.19-0.28
	c0.64,0.03,0.89,0.73,1.54,0.89c-0.04-0.21-0.03-0.34-0.09-0.45c-0.41-0.85-1.08-1.48-1.85-1.99C22.85,10.52,22.38,10.45,21.8,10.69
	z M26.42,9c0.53,0.04,0.95-0.13,1.32-0.45c0.87-0.76,0.98-1.76,0.86-2.82c-0.01-0.09-0.11-0.18-0.17-0.26
	c-1.09,0.44-1.96,1.43-2.18,2.42C26.31,8.26,26.36,8.59,26.42,9z M26.54,47.36c0.25,0.26,0.55,0.26,0.85,0.14
	c0.32-0.12,0.58-0.33,0.76-0.62c0.4-0.64,0.73-1.31,0.9-2.05c0.02-0.1-0.01-0.2-0.01-0.3c-0.1-0.02-0.17-0.05-0.2-0.03
	c-0.7,0.35-1.34,0.78-1.88,1.34C26.52,46.28,26.34,46.77,26.54,47.36z M24.74,29.97c0.05,0.22,0.06,0.36,0.11,0.48
	c0.16,0.36,0.34,0.7,0.51,1.05c0.19,0.4,0.49,0.67,0.93,0.76c0.35-0.07,0.66-0.18,0.82-0.54c0.11-0.58-0.17-0.95-0.67-1.2
	C25.95,30.26,25.44,30.04,24.74,29.97z M23.52,18.26c0.26,0.42,0.48,0.79,0.71,1.17c0.06,0.09,0.12,0.19,0.21,0.26
	c0.25,0.21,0.5,0.44,0.78,0.6c0.24,0.13,0.52,0.2,0.77-0.02c-0.04-1.12-0.5-1.65-1.96-2.22C23.89,18.09,23.73,18.17,23.52,18.26z
	 M24.88,36.26c0.36,1.21,1.1,1.98,2.06,2.22c0.02-0.08,0.08-0.17,0.06-0.23c-0.17-0.44-0.31-0.9-0.55-1.3
	c-0.23-0.38-0.58-0.69-1.05-0.76C25.26,36.17,25.1,36.23,24.88,36.26z M27.43,23.66c-0.55,0.21-0.52,0.64-0.54,1.04
	c-0.01,0.34-0.1,0.72,0.38,0.93c0.08-0.16,0.2-0.29,0.21-0.44C27.51,24.72,27.71,24.23,27.43,23.66z"/>
</svg>
