<?xml version="1.0" encoding="utf-8"?>
<!-- Generator: Adobe Illustrator 23.0.6, SVG Export Plug-In . SVG Version: 6.00 Build 0)  -->
<svg version="1.1" id="Layer_1" xmlns="http://www.w3.org/2000/svg" xmlns:xlink="http://www.w3.org/1999/xlink" x="0px" y="0px"
	 viewBox="0 0 56.69 56.69" style="enable-background:new 0 0 56.69 56.69;" xml:space="preserve">
<style type="text/css">
	.st0{fill:#E5AC7F;}
	.st1{fill:#FFFFFF;}
</style>
<ellipse class="st0" cx="28.89" cy="28.35" rx="25.1" ry="24.42"/>
<g>
	<ellipse class="st1" cx="37.77" cy="19.84" rx="1.95" ry="1.9"/>
	<path class="st1" d="M29.11,20.38c-4.52,0-8.19,3.58-8.19,7.97s3.67,7.97,8.19,7.97s8.19-3.58,8.19-7.97S33.62,20.38,29.11,20.38z
		 M29.11,33.45c-2.89,0-5.25-2.29-5.25-5.11c0-2.81,2.35-5.1,5.25-5.1s5.25,2.29,5.25,5.1C34.35,31.16,32,33.45,29.11,33.45z"/>
	<g>
		<path class="st1" d="M35.61,44.53H22.33c-5.51,0-9.99-4.36-9.99-9.72V21.89c0-5.36,4.48-9.72,9.99-9.72h13.28
			c5.51,0,9.99,4.36,9.99,9.72v12.92C45.6,40.17,41.12,44.53,35.61,44.53z M22.33,15.21c-3.78,0-6.86,2.99-6.86,6.68v12.92
			c0,3.68,3.08,6.68,6.86,6.68h13.28c3.78,0,6.86-2.99,6.86-6.68V21.89c0-3.68-3.08-6.68-6.86-6.68H22.33z"/>
	</g>
</g>
</svg>
