<?xml version="1.0" encoding="iso-8859-1"?>
<!-- Generator: Adobe Illustrator 23.0.6, SVG Export Plug-In . SVG Version: 6.00 Build 0)  -->
<svg version="1.1" id="Layer_1" xmlns="http://www.w3.org/2000/svg" xmlns:xlink="http://www.w3.org/1999/xlink" x="0px" y="0px"
	 viewBox="-49 141 512 512" style="enable-background:new -49 141 512 512;" xml:space="preserve">
<path style="fill:#FFFFFF;" d="M425.92,358.592H96.696l103.496-103.724c5.068-5.064,7.848-11.924,7.848-19.124
	c0-7.2-2.78-14.012-7.848-19.088l-16.104-16.112c-5.064-5.064-11.812-7.864-19.008-7.864c-7.2,0-13.952,2.78-19.016,7.844
	L-31.348,377.92c-5.084,5.084-7.864,11.856-7.844,19.06c-0.02,7.244,2.76,14.02,7.844,19.096l177.412,177.412
	c5.064,5.06,11.812,7.844,19.016,7.844c7.196,0,13.944-2.788,19.008-7.844l16.104-16.112c5.068-5.056,7.848-11.808,7.848-19.008
	c0-7.196-2.78-13.592-7.848-18.652L95.528,435.412H425.52c14.828,0,27.288-12.78,27.288-27.6v-22.788
	c0-14.82-12.828-26.6-27.656-26.6"/>
</svg>
