<?xml version="1.0" encoding="iso-8859-1"?>
<!-- Generator: Adobe Illustrator 23.0.6, SVG Export Plug-In . SVG Version: 6.00 Build 0)  -->
<svg version="1.1" id="Layer_1" xmlns="http://www.w3.org/2000/svg" xmlns:xlink="http://www.w3.org/1999/xlink" x="0px" y="0px"
	 viewBox="-49 141 512 512" style="enable-background:new -49 141 512 512;" xml:space="preserve">
<path style="fill:#FFFFFF;" d="M245.222,616.118V286.894L348.946,390.39c5.064,5.068,11.924,7.848,19.124,7.848
	s14.012-2.78,19.088-7.848l16.112-16.104c5.064-5.064,7.864-11.812,7.864-19.008c0-7.2-2.78-13.952-7.844-19.016L225.894,158.85
	c-5.084-5.084-11.856-7.864-19.06-7.844c-7.244-0.02-14.02,2.76-19.096,7.844L10.326,336.262c-5.06,5.064-7.844,11.812-7.844,19.016
	c0,7.196,2.788,13.944,7.844,19.008l16.112,16.104c5.056,5.068,11.808,7.848,19.008,7.848c7.196,0,13.592-2.78,18.652-7.848
	l104.304-104.664v329.992c0,14.828,12.78,27.288,27.6,27.288h22.788c14.82,0,26.6-12.828,26.6-27.656"/>
</svg>
