<?xml version="1.0" encoding="utf-8"?>
<!-- Generator: Adobe Illustrator 23.0.6, SVG Export Plug-In . SVG Version: 6.00 Build 0)  -->
<svg version="1.1" id="Layer_1" xmlns="http://www.w3.org/2000/svg" xmlns:xlink="http://www.w3.org/1999/xlink" x="0px" y="0px"
	 viewBox="0 0 56.69 56.69" style="enable-background:new 0 0 56.69 56.69;" xml:space="preserve">
<style type="text/css">
	.st0{fill:#FFFFFF;}
	.st1{fill:#E5AC7F;}
	.st2{fill-rule:evenodd;clip-rule:evenodd;fill:#FFFFFF;}
</style>
<g>
	<circle class="st0" cx="37" cy="20.8" r="1.68"/>
	<path class="st0" d="M29.51,21.27c-3.9,0-7.08,3.17-7.08,7.08s3.17,7.08,7.08,7.08s7.08-3.17,7.08-7.08S33.41,21.27,29.51,21.27z
		 M29.51,32.88c-2.5,0-4.53-2.03-4.53-4.53c0-2.5,2.03-4.53,4.53-4.53s4.53,2.03,4.53,4.53C34.04,30.85,32.01,32.88,29.51,32.88z"/>
	<g>
		<path class="st0" d="M35.13,42.71H23.66c-4.76,0-8.63-3.87-8.63-8.63V22.61c0-4.76,3.87-8.63,8.63-8.63h11.47
			c4.76,0,8.63,3.87,8.63,8.63v11.47C43.76,38.84,39.89,42.71,35.13,42.71z M23.66,16.68c-3.27,0-5.93,2.66-5.93,5.93v11.47
			c0,3.27,2.66,5.93,5.93,5.93h11.47c3.27,0,5.93-2.66,5.93-5.93V22.61c0-3.27-2.66-5.93-5.93-5.93H23.66z"/>
	</g>
</g>
<ellipse class="st1" cx="29.51" cy="28.35" rx="23.24" ry="23.54"/>
<g>
	<path class="st0" d="M43.62,19.27c-0.91,0.42-1.91,0.67-2.89,0.84c0.47-0.08,1.15-0.93,1.43-1.28c0.42-0.53,0.77-1.13,0.96-1.78
		c0.02-0.05,0.04-0.11-0.01-0.15c-0.06-0.03-0.1-0.01-0.15,0.01c-1.1,0.59-2.23,1.03-3.43,1.33c-0.1,0.03-0.17,0-0.24-0.06
		c-0.1-0.11-0.19-0.22-0.3-0.31c-0.51-0.44-1.05-0.78-1.66-1.03c-0.8-0.33-1.68-0.47-2.55-0.42c-0.84,0.06-1.67,0.3-2.42,0.69
		c-0.75,0.4-1.42,0.95-1.95,1.62c-0.55,0.69-0.96,1.5-1.17,2.37c-0.2,0.83-0.18,1.66-0.06,2.5c0.02,0.14,0.01,0.16-0.12,0.14
		c-4.72-0.71-8.63-2.42-11.8-6.09c-0.14-0.16-0.21-0.16-0.33,0.01c-1.39,2.11-0.71,5.5,1.02,7.16c0.23,0.22,0.47,0.44,0.73,0.65
		c-0.09,0.02-1.25-0.11-2.28-0.65c-0.14-0.09-0.21-0.04-0.22,0.12c-0.01,0.23,0.01,0.44,0.04,0.68c0.27,2.14,1.73,4.12,3.73,4.89
		c0.24,0.1,0.5,0.19,0.76,0.23c-0.46,0.1-0.93,0.17-2.23,0.07c-0.16-0.03-0.22,0.05-0.16,0.21c0.98,2.71,3.1,3.52,4.69,3.98
		c0.21,0.04,0.43,0.04,0.64,0.09c-0.01,0.02-0.03,0.02-0.04,0.04c-0.53,0.81-2.35,1.42-3.2,1.72c-1.55,0.55-3.23,0.79-4.87,0.63
		c-0.26-0.04-0.32-0.04-0.39,0c-0.07,0.04-0.01,0.11,0.07,0.18c0.33,0.22,0.67,0.42,1.01,0.61c1.04,0.56,2.12,1,3.25,1.32
		c5.85,1.64,12.43,0.43,16.82-3.99c3.45-3.47,4.66-8.26,4.66-13.05c0-0.19,0.22-0.29,0.35-0.39c0.9-0.68,1.61-1.5,2.28-2.41
		c0.15-0.2,0.14-0.39,0.14-0.46c0-0.01,0-0.03,0-0.03C43.73,19.19,43.74,19.21,43.62,19.27z"/>
	<path class="st2" d="M23.61,40.19C26.03,40.19,23.73,40.19,23.61,40.19C23.93,40.19,23.6,40.19,23.61,40.19z"/>
	<path class="st2" d="M23.61,40.19C23.57,40.19,23.14,40.19,23.61,40.19C23.61,40.19,23.53,40.19,23.61,40.19z"/>
	<path class="st2" d="M24.57,40.21C24.57,40.16,25.08,40.21,24.57,40.21C24.57,40.19,24.64,40.21,24.57,40.21z"/>
	<path class="st2" d="M34.7,16.44c-0.03,0.03-0.07,0.03-0.12,0C34.62,16.44,34.66,16.44,34.7,16.44z"/>
</g>
</svg>
